<svg width="67" height="61" viewBox="0 0 67 61" fill="none" xmlns="http://www.w3.org/2000/svg">
<mask id="mask0_66_300" style="mask-type:luminance" maskUnits="userSpaceOnUse" x="46" y="39" width="5" height="23">
<path d="M46.6995 39.4821H50.0194V61.0001H46.6995V39.4821Z" fill="white"/>
</mask>
<g mask="url(#mask0_66_300)">
<path d="M48.6296 60.9932C48.3684 60.9932 48.1332 60.8095 48.0789 60.5435L47.3756 57.1214C46.5173 52.9341 46.5224 48.8633 47.3964 45.0198C47.4712 44.6839 47.5541 44.3452 47.6419 44.0116C47.859 43.2001 48.1486 42.2516 48.4305 41.3365C48.5804 40.8456 48.7303 40.3621 48.8621 39.91C48.9526 39.6099 49.2653 39.442 49.5627 39.5273C49.8628 39.6154 50.0332 39.9305 49.9454 40.2279C49.8085 40.6854 49.661 41.1737 49.5084 41.665C49.2291 42.5722 48.9423 43.5104 48.7327 44.3012C48.6477 44.6217 48.5675 44.9447 48.4951 45.2681C47.66 48.9538 47.6549 52.8642 48.4794 56.8937L49.1827 60.3158C49.2448 60.621 49.0482 60.9181 48.7433 60.9829C48.7044 60.9881 48.6682 60.9932 48.6296 60.9932Z" fill="#2D1E19"/>
</g>
<mask id="mask1_66_300" style="mask-type:luminance" maskUnits="userSpaceOnUse" x="15" y="39" width="5" height="23">
<path d="M15.9714 39.4821H19.2141V61.0001H15.9714V39.4821Z" fill="white"/>
</mask>
<g mask="url(#mask1_66_300)">
<path d="M17.366 60.9932C17.3325 60.9932 17.2987 60.9905 17.2625 60.9829C16.9576 60.9259 16.7559 60.634 16.8129 60.3264L17.508 56.5656C18.17 52.9727 18.1932 49.499 17.578 46.2425C17.4537 45.5935 17.3066 44.9396 17.1359 44.3012C16.774 42.9392 16.3991 41.5639 16.0164 40.2122C15.931 39.9152 16.1044 39.6024 16.4042 39.5171C16.7016 39.4344 17.0143 39.6075 17.0997 39.9073C17.4848 41.2618 17.8624 42.6445 18.227 44.0116C18.4025 44.676 18.5579 45.3558 18.6845 46.0329C19.3281 49.4267 19.3049 53.04 18.6146 56.7697L17.9191 60.533C17.8702 60.802 17.6323 60.9932 17.366 60.9932Z" fill="#2D1E19"/>
</g>
<path d="M5.15036 26.043C4.89189 26.043 4.65937 25.8648 4.59966 25.6012C3.8294 22.148 3.95607 18.6638 4.96699 15.5312C6.13806 11.8997 8.56555 8.73879 11.6318 6.85959C13.3379 5.81277 15.2693 5.11761 17.1331 4.44567C20.0494 3.39373 22.8026 2.4012 24.677 0.199C24.8788 -0.0389532 25.2356 -0.0673026 25.4732 0.13446C25.7085 0.335921 25.7395 0.692701 25.5353 0.930353C23.467 3.35995 20.4424 4.4508 17.5158 5.50515C15.7035 6.1593 13.8292 6.83395 12.2211 7.82105C9.38255 9.56062 7.12818 12.4969 6.03974 15.8777C5.09094 18.8191 4.97453 22.0965 5.70106 25.3557C5.76831 25.6606 5.5771 25.9604 5.27461 26.0304C5.23329 26.0379 5.19167 26.043 5.15036 26.043Z" fill="#2D1E19"/>
<path d="M10.1506 58.6232C10.0964 58.6232 10.0421 58.6154 9.9902 58.6C9.69314 58.5119 9.52244 58.1968 9.6102 57.8994C9.63372 57.8168 12.0199 49.631 11.8233 42.3579C11.813 42.0476 12.0585 41.7891 12.3712 41.7789C12.6843 41.771 12.94 42.0165 12.9506 42.3293C13.1521 49.7836 10.7143 58.1346 10.6911 58.2173C10.6187 58.4631 10.3937 58.6232 10.1506 58.6232Z" fill="#2D1E19"/>
<path d="M60.6358 26.3971C60.5917 26.3971 60.5477 26.392 60.504 26.3817C60.2015 26.3069 60.0154 26.0017 60.0878 25.6995C60.9045 22.3263 60.814 18.9301 59.829 15.8777C58.7406 12.4969 56.4889 9.56062 53.6477 7.82105C52.0396 6.83395 50.1652 6.1593 48.353 5.50515C45.4291 4.4508 42.4017 3.35995 40.3334 0.930353C40.132 0.692701 40.1603 0.335921 40.3983 0.13446C40.6359 -0.0673026 40.9903 -0.0389532 41.1917 0.199C43.0661 2.4012 45.8196 3.39373 48.7357 4.44567C50.6022 5.11761 52.5309 5.81277 54.2373 6.85959C57.3032 8.73879 59.7334 11.8997 60.9021 15.5312C61.9516 18.7829 62.0472 22.3911 61.1838 25.9655C61.1216 26.224 60.8918 26.3971 60.6358 26.3971Z" fill="#2D1E19"/>
<path d="M55.721 58.623C55.4779 58.623 55.2533 58.4629 55.1809 58.2171C55.1549 58.1344 52.7169 49.7835 52.9211 42.3291C52.9289 42.0215 53.1798 41.7787 53.4847 41.7787C53.4899 41.7787 53.495 41.7787 53.5004 41.7787C53.8105 41.7889 54.0563 42.0474 54.0484 42.3577C53.8494 49.6309 56.2355 57.8166 56.2615 57.8992C56.3492 58.1966 56.1785 58.5117 55.8788 58.5998C55.8272 58.6152 55.7729 58.623 55.721 58.623Z" fill="#2D1E19"/>
<path d="M0.564103 50.7655C0.427182 50.7655 0.287547 50.7139 0.178975 50.6132C-0.0484233 50.4012 -0.0613916 50.0444 0.153038 49.817L10.9002 38.2894C10.9804 38.204 11.0838 38.1446 11.1999 38.1214L14.6073 37.4208C15.6001 37.2166 16.4922 36.7154 17.185 35.9711C18.537 34.5234 20.763 32.6521 23.8419 31.7217C23.5991 31.228 23.0379 30.5533 21.7893 30.6257C21.4739 30.6414 21.2103 30.4061 21.1922 30.0958C21.1765 29.7831 21.4117 29.5171 21.7248 29.499C24.0334 29.3774 24.9563 31.0808 25.1192 32.0061C25.1707 32.298 24.9898 32.5797 24.703 32.6521C21.4196 33.4845 19.1007 35.5703 18.0095 36.741C17.1566 37.656 16.0576 38.274 14.835 38.5246L11.6035 39.1887L0.977883 50.5848C0.866597 50.7037 0.713993 50.7655 0.564103 50.7655Z" fill="#2D1E19"/>
<path d="M0.564202 39.2378C0.419439 39.2378 0.274677 39.1811 0.163692 39.0698C-0.0561659 38.8503 -0.0537532 38.4935 0.166105 38.2739L1.80253 36.6532C3.26342 35.2032 4.31295 33.4274 4.83771 31.515C5.39113 29.4989 6.61377 26.5808 9.29731 24.115C9.78859 23.6626 10.2772 23.1535 10.833 22.5099C12.3687 20.7239 15.1376 17.5268 16.4275 16.1566C16.5026 16.0767 16.5982 16.0197 16.7016 15.9938C16.8102 15.9681 17.7771 15.751 18.4855 16.2963C18.775 16.5213 19.124 16.9552 19.1369 17.7644C19.1397 17.9013 19.0905 18.0358 19.0024 18.1417L14.6514 23.2156C14.4499 23.4533 14.0932 23.4792 13.8576 23.2775C13.6224 23.076 13.594 22.7192 13.7958 22.484L17.9942 17.5835C17.9659 17.4025 17.901 17.2707 17.8003 17.1932C17.6193 17.0512 17.3168 17.0457 17.1178 17.0665C15.7941 18.4882 13.1676 21.5252 11.6862 23.244C11.102 23.9238 10.5848 24.4639 10.06 24.9446C7.57282 27.2295 6.43794 29.9408 5.92343 31.8148C5.3471 33.916 4.19654 35.8649 2.59631 37.4518L0.962299 39.0726C0.851314 39.1835 0.708965 39.2378 0.564202 39.2378Z" fill="#2D1E19"/>
<path d="M16.1383 24.6057C16.0116 24.6057 15.8876 24.5644 15.7815 24.4818C15.5411 24.2854 15.5049 23.9287 15.7013 23.6883L20.8617 17.3456C20.885 17.1981 20.8901 17.0199 20.8075 16.9267C20.7064 16.813 20.4661 16.7638 20.2592 16.7587L18.9898 18.1517C18.7805 18.3846 18.4264 18.3999 18.1936 18.1906C17.9635 17.9813 17.9481 17.6246 18.1574 17.3944L19.5845 15.8283C19.675 15.7276 19.7965 15.6654 19.931 15.6473C20.0447 15.632 21.0608 15.5234 21.645 16.1694C21.8802 16.433 22.1257 16.9164 21.9372 17.7202C21.9164 17.8031 21.8775 17.8806 21.8232 17.9476L16.5753 24.3991C16.464 24.5361 16.3011 24.6057 16.1383 24.6057Z" fill="#2D1E19"/>
<path d="M17.9373 26.2318C17.8185 26.2318 17.697 26.1929 17.5935 26.113C17.348 25.9242 17.3016 25.5702 17.4928 25.3219L23.6069 17.4025C23.5915 17.1778 23.527 17.015 23.413 16.914C23.2552 16.7746 22.9944 16.7408 22.8056 16.7384L21.8257 17.9478C21.6294 18.1882 21.275 18.2244 21.0319 18.0307C20.7891 17.8341 20.753 17.4776 20.9493 17.2373L22.0842 15.8415C22.1695 15.7353 22.2911 15.663 22.4256 15.6397C22.5314 15.6244 23.4778 15.4769 24.1497 16.0611C24.4317 16.3066 24.7626 16.7746 24.7366 17.6118C24.7315 17.7282 24.6902 17.8419 24.6205 17.9375L18.3846 26.0123C18.2736 26.1567 18.108 26.2318 17.9373 26.2318Z" fill="#2D1E19"/>
<path d="M17.9372 32.4169C17.8443 32.4169 17.746 32.3934 17.6583 32.3418C17.3892 32.1868 17.2964 31.843 17.4487 31.5716C19.8891 27.3249 23.5474 20.9149 23.9974 20.0129C23.9506 19.3382 23.4569 19.2245 23.3019 19.204C22.9967 19.1678 22.7717 18.8937 22.8028 18.5861C22.8365 18.2812 23.1028 18.0562 23.4105 18.0821C24.0049 18.1364 25.1295 18.6301 25.1295 20.1187C25.1295 20.3154 25.1295 20.4704 18.4285 32.1325C18.3227 32.3159 18.1339 32.4169 17.9372 32.4169Z" fill="#2D1E19"/>
<path d="M65.6204 50.7656C65.473 50.7656 65.3282 50.7089 65.2172 50.5977L53.9945 39.1916L50.7524 38.5248C49.5298 38.2741 48.4311 37.6562 47.5779 36.7412C46.4867 35.5704 44.1678 33.4846 40.8844 32.6522C40.5976 32.5798 40.4167 32.2982 40.4682 32.0062C40.6338 31.0809 41.5515 29.3749 43.8653 29.4991C44.1757 29.5172 44.4133 29.7832 44.3952 30.096C44.3771 30.4063 44.1135 30.6415 43.8008 30.6258C42.5519 30.5535 41.991 31.2257 41.7479 31.7218C44.8271 32.6522 47.0504 34.5236 48.4024 35.9712C49.0955 36.7155 49.9873 37.2168 50.9801 37.4209L54.3899 38.1215C54.4984 38.1448 54.5995 38.199 54.677 38.2793L66.0212 49.8069C66.2408 50.0292 66.2384 50.3859 66.0161 50.6031C65.9075 50.7113 65.7628 50.7656 65.6204 50.7656Z" fill="#2D1E19"/>
<path d="M65.3439 39.5533C65.1991 39.5533 65.0567 39.499 64.9458 39.3904L62.9912 37.4518C61.3909 35.8649 60.2404 33.916 59.664 31.8148C59.1495 29.9408 58.0146 27.2295 55.5274 24.9446C55.0027 24.4639 54.4858 23.9238 53.9013 23.244C52.7097 21.8585 49.8527 18.5528 48.4697 17.0665C48.2733 17.0457 47.9681 17.0512 47.7872 17.1932C47.6864 17.2707 47.6216 17.4025 47.5932 17.5835L51.7917 22.484C51.9934 22.7192 51.9675 23.076 51.7298 23.2775C51.4946 23.4792 51.1378 23.4533 50.9361 23.2156L46.5877 18.1417C46.4973 18.0358 46.4481 17.9013 46.4505 17.7644C46.4662 16.9552 46.8124 16.5213 47.102 16.2963C47.8104 15.751 48.7773 15.9681 48.8859 15.9938C48.992 16.0197 49.0876 16.0767 49.1624 16.1566C50.4526 17.5292 53.2215 20.7263 54.7572 22.5099C55.3103 23.1535 55.7989 23.6626 56.2902 24.115C58.9764 26.5808 60.199 29.5013 60.7498 31.515C61.2772 33.4274 62.3243 35.2032 63.7874 36.6532L65.7392 38.5891C65.9618 38.809 65.9618 39.1654 65.7447 39.3877C65.6334 39.499 65.4886 39.5533 65.3439 39.5533Z" fill="#2D1E19"/>
<path d="M49.4521 24.6057C49.2865 24.6057 49.1237 24.5361 49.0124 24.3991L43.7644 17.9476C43.7101 17.8806 43.6712 17.8031 43.6531 17.7202C43.4643 16.9164 43.7074 16.433 43.9454 16.1694C44.5271 15.5234 45.5429 15.632 45.6569 15.6473C45.7911 15.6654 45.9126 15.7276 46.0031 15.8283L47.4302 17.3944C47.6395 17.6246 47.6242 17.9813 47.394 18.1906C47.1639 18.3999 46.8072 18.3846 46.5979 18.1517L45.3285 16.7587C45.1243 16.7638 44.8836 16.813 44.7805 16.9267C44.6975 17.0199 44.7027 17.1981 44.7262 17.3456L49.8888 23.6883C50.0827 23.9287 50.0465 24.2854 49.8062 24.4818C49.7027 24.5644 49.576 24.6057 49.4521 24.6057Z" fill="#2D1E19"/>
<path d="M47.6499 26.2318C47.4819 26.2318 47.3136 26.1567 47.2026 26.0123L40.9694 17.9375C40.897 17.8419 40.8557 17.7282 40.8506 17.6118C40.8246 16.7746 41.1555 16.3065 41.4374 16.061C42.1097 15.4769 43.0585 15.6216 43.1643 15.6397C43.2961 15.6629 43.4177 15.7353 43.5054 15.8415L44.6379 17.2372C44.8345 17.4776 44.7984 17.8341 44.5553 18.0307C44.3149 18.2271 43.9605 18.1881 43.7642 17.9478L42.7816 16.7384C42.5931 16.7408 42.3344 16.7746 42.1742 16.9139C42.0605 17.015 41.9957 17.1778 41.9803 17.4025L48.0944 25.3219C48.2856 25.5701 48.2392 25.9242 47.9937 26.113C47.8902 26.1929 47.7687 26.2318 47.6499 26.2318Z" fill="#2D1E19"/>
<path d="M47.6498 32.4173C47.4559 32.4173 47.2644 32.3162 47.1613 32.1329C40.46 20.4707 40.46 20.3157 40.46 20.1191C40.46 18.6304 41.5846 18.1367 42.1766 18.0825C42.4869 18.0592 42.7611 18.2842 42.7894 18.5943C42.8178 18.9019 42.5904 19.1757 42.2852 19.2068C42.1277 19.2249 41.6365 19.3386 41.5897 20.0132C42.0397 20.9153 45.698 27.3252 48.1384 31.5719C48.2934 31.8433 48.2005 32.1872 47.9291 32.3422C47.841 32.3937 47.7454 32.4173 47.6498 32.4173Z" fill="#2D1E19"/>
<path d="M27.3943 23.9522C27.3219 23.9522 27.2492 23.9392 27.1823 23.9109C26.8927 23.7921 26.7531 23.4636 26.8692 23.1768C28.0171 20.3518 27.7043 17.0045 26.0549 14.4407C25.8869 14.1771 25.962 13.8282 26.2229 13.6599C26.4868 13.4919 26.8357 13.567 27.0037 13.8306C28.8497 16.6969 29.1987 20.4396 27.9163 23.6009C27.8258 23.8177 27.6165 23.9522 27.3943 23.9522Z" fill="#2D1E19"/>
<path d="M38.4775 23.9522C38.2549 23.9522 38.0429 23.8177 37.9551 23.6009C36.6704 20.4396 37.0217 16.6969 38.8677 13.8306C39.0333 13.567 39.3847 13.4919 39.6458 13.6599C39.907 13.8282 39.9821 14.1771 39.8138 14.4407C38.1644 17.0045 37.8517 20.3518 38.9995 23.1768C39.116 23.4636 38.9763 23.7921 38.6892 23.9109C38.6195 23.9392 38.5472 23.9522 38.4775 23.9522Z" fill="#2D1E19"/>
</svg>
