<svg width="24" height="79" viewBox="0 0 24 79" fill="none" xmlns="http://www.w3.org/2000/svg">
<mask id="mask0_66_327" style="mask-type:luminance" maskUnits="userSpaceOnUse" x="0" y="0" width="24" height="79">
<path d="M0 0H23.0655V79H0V0Z" fill="white"/>
</mask>
<g mask="url(#mask0_66_327)">
<path d="M23.0633 21.3544C22.9565 20.1249 22.8693 18.3664 22.7769 16.5044C22.6632 14.2149 22.5457 11.8474 22.385 10.4537C22.3259 9.97886 22.2181 9.51516 22.0611 9.06321C21.4504 7.24593 19.7478 1.77713 19.6021 0.89739C19.5943 0.851346 19.5802 0.807588 19.5603 0.765789C19.3647 0.357269 18.9281 0.154806 18.421 0.240036C17.5834 0.379802 16.6305 1.26084 16.4865 2.49359C16.4287 2.98995 16.5142 3.94969 16.6687 5.08153C15.5587 3.33251 14.68 2.14221 13.765 0.902942L13.3633 0.358576C13.3522 0.343228 13.3398 0.328859 13.3271 0.314817C13.0305 -0.00389954 12.573 -0.063659 12.1341 0.159051C11.4229 0.519567 10.8165 1.57499 11.0333 2.71695C11.1016 3.07714 11.401 3.64077 12.0189 4.78012C12.4019 5.48711 12.8744 6.36195 13.3751 7.36676C12.5325 6.58466 11.645 5.77742 10.9948 5.18603L10.6751 4.89703C10.3329 4.6286 9.87211 4.6397 9.47273 4.92707C8.8255 5.39306 8.38922 6.52947 8.78011 7.62473C8.98421 8.19816 9.68989 8.97275 10.9194 10.292C11.2012 10.5944 11.4941 10.9108 11.7887 11.2335L11.5855 11.1045C10.743 10.5683 9.87145 10.0141 9.72222 9.89494C9.68564 9.86588 9.64613 9.84236 9.60303 9.82473C9.23304 9.67223 8.8304 9.79371 8.5512 10.1434C8.11884 10.6852 8.01826 11.7361 8.59855 12.5564C8.66908 12.6563 8.78109 12.7542 9.44661 13.3195C10.6157 14.3126 13.0482 16.3787 13.845 17.5742C14.9866 19.2879 15.4376 21.1872 15.7824 23.6788C15.6479 24.1732 15.5058 24.6506 15.3553 25.1022C15.3487 25.1235 15.3403 25.144 15.3298 25.164C15.1865 25.1375 14.8504 24.8975 14.6787 24.6327C14.3302 24.0942 13.9384 23.1857 13.524 22.2237C12.91 20.7996 12.2145 19.1857 11.3978 18.1538C9.71014 16.0217 7.69334 16.0877 7.30637 16.122C7.19795 16.1318 7.09248 16.1543 6.98929 16.1889C6.88642 16.2239 6.78878 16.2706 6.69702 16.3284C6.60493 16.3865 6.52101 16.4544 6.44492 16.5322C6.36916 16.6102 6.3032 16.6958 6.24768 16.7892C6.18694 16.8888 6.13861 16.9939 6.10269 17.1049C6.06644 17.216 6.04391 17.3293 6.03411 17.4455C6.02464 17.5618 6.02856 17.6777 6.0462 17.793C6.06383 17.9083 6.0942 18.0199 6.13763 18.128C6.32932 18.581 6.54354 19.0228 6.78029 19.4535C7.27894 20.3989 7.89874 21.5738 8.59332 23.9263C8.60475 24.0191 8.63218 24.2411 8.67235 24.5549C8.04471 23.7265 7.02455 23.3869 6.30124 23.5505C5.80781 23.6621 5.4855 24.0086 5.45905 24.4544C5.45644 24.5007 5.46036 24.5464 5.47081 24.5918C5.53285 24.8668 5.60698 25.5565 5.68242 26.4176C4.9862 26.0669 4.25341 26.2648 4.21847 26.2749C4.16949 26.2886 4.12377 26.3095 4.08132 26.3376C4.03854 26.3657 4.00132 26.3996 3.96964 26.4395C3.93764 26.4793 3.91249 26.5228 3.89421 26.5704C3.87559 26.6181 3.86514 26.6671 3.86188 26.718C3.86057 26.7429 3.76195 28.4076 3.64537 30.061C3.32469 29.7906 2.89397 29.6009 2.32479 29.6009C2.3163 29.6009 2.30813 29.6009 2.29964 29.6009C2.26894 29.6012 2.23858 29.6044 2.20853 29.6103C2.17849 29.6162 2.14943 29.625 2.12102 29.6364C2.09261 29.6479 2.0655 29.6619 2.0397 29.6786C2.01391 29.6949 1.99007 29.7138 1.96754 29.7347C1.94533 29.7556 1.92541 29.7788 1.90745 29.8036C1.88949 29.8281 1.87381 29.8546 1.86075 29.8823C1.84769 29.9101 1.83724 29.9385 1.82973 29.9682C1.82189 29.9979 1.81699 30.028 1.81503 30.0587C1.8134 30.0809 1.67396 32.1735 1.58351 35.0661C1.28047 34.8587 0.948033 34.7212 0.586864 34.6543C0.514042 34.6393 0.441874 34.6409 0.369705 34.6592C0.297863 34.6775 0.233532 34.7104 0.176712 34.7581C0.119891 34.8055 0.0758065 34.8629 0.0447838 34.9305C0.0137612 34.9978 -0.00093378 35.0687 4.59037e-05 35.1428L0.0895218 41.2298C0.0901749 41.2543 0.0921342 41.2784 0.0960528 41.3026C0.102584 41.3408 0.742304 45.1768 1.76866 48.3555C2.28462 49.9533 4.20476 52.9877 5.89892 55.6648C7.09607 57.5565 8.58581 59.911 8.63512 60.3743C8.62042 62.0757 6.26532 72.9095 5.02212 78.4005C5.01494 78.4318 5.01102 78.4635 5.01037 78.4958C5.00939 78.5282 5.01167 78.5602 5.01723 78.5918C5.02278 78.6235 5.03127 78.6545 5.0427 78.6846C5.05413 78.7146 5.06849 78.7433 5.0858 78.7705C5.10311 78.7976 5.1227 78.823 5.14491 78.8465C5.16711 78.8697 5.19128 78.8906 5.21773 78.9092C5.24385 78.9278 5.27194 78.9439 5.30133 78.9569C5.33072 78.97 5.36109 78.9801 5.39244 78.987C5.42836 78.9954 5.46428 78.9994 5.50118 78.9994C5.55669 78.9994 5.61057 78.9899 5.66315 78.9716C5.71572 78.953 5.7634 78.9265 5.80683 78.8919C5.85027 78.857 5.88684 78.8162 5.91623 78.7691C5.94562 78.7218 5.96652 78.6712 5.97893 78.617C6.12653 77.9648 9.59649 62.6132 9.61609 60.3828C9.62099 59.7705 8.82811 58.4588 6.72772 55.1397C5.0649 52.5119 3.18003 49.5334 2.70228 48.0535C1.7507 45.1076 1.13645 41.5697 1.06984 41.1779L0.991465 35.8524C1.12666 35.9383 1.24063 36.0461 1.33369 36.1767C1.42643 36.307 1.49142 36.45 1.52832 36.6058C1.53518 36.6296 1.54399 36.6525 1.55477 36.675C1.5613 36.8647 1.57828 37.0538 1.60539 37.2419C1.96362 39.693 2.57395 42.7205 3.28061 45.5488C3.28877 45.5798 3.29955 45.6095 3.31359 45.6386C3.32763 45.6673 3.34396 45.6948 3.36323 45.7202C3.38249 45.746 3.40405 45.7695 3.42789 45.7908C3.45172 45.8123 3.47752 45.8313 3.50495 45.8476C3.53238 45.8639 3.56145 45.8773 3.59149 45.8881C3.62186 45.8988 3.65288 45.9067 3.68456 45.9113C3.71623 45.9158 3.74791 45.9175 3.77991 45.9158C3.81191 45.9142 3.84359 45.9096 3.87461 45.9018C3.90563 45.894 3.93568 45.8832 3.96474 45.8695C3.9938 45.8561 4.02123 45.8397 4.04703 45.8205C4.0725 45.8015 4.09634 45.7803 4.11789 45.7565C4.13945 45.733 4.15871 45.7072 4.17537 45.6797C4.1917 45.6526 4.20574 45.6236 4.21651 45.5935C4.22762 45.5635 4.23545 45.5325 4.24035 45.5008C4.24525 45.4691 4.24721 45.4374 4.2459 45.4054C4.2446 45.3734 4.24003 45.3417 4.23252 45.3107C3.53336 42.5128 2.92924 39.5203 2.57591 37.0998C2.51419 36.6789 2.52529 36.3455 2.53933 35.9236L2.54684 35.6862C2.61019 33.4019 2.70947 31.538 2.76074 30.6631C3.33645 30.8983 3.45172 31.5729 3.46544 31.6673C3.47393 31.7159 3.48993 31.7623 3.51279 31.8061C3.49973 31.9625 3.48667 32.1137 3.47393 32.2528C3.41776 32.8651 3.43801 33.3624 3.53761 33.818C3.82269 35.1226 4.18092 36.5633 4.52772 37.9567C4.84284 39.2234 5.16907 40.5326 5.42542 41.687C5.4375 41.7412 5.45807 41.7921 5.48746 41.8395C5.51718 41.8871 5.55343 41.9283 5.59686 41.9632C5.64062 41.9982 5.68862 42.0249 5.7412 42.0432C5.79377 42.0618 5.84798 42.0713 5.90382 42.0713C5.93974 42.0713 5.97534 42.0674 6.01028 42.0592C6.04195 42.0524 6.07232 42.0422 6.10171 42.0295C6.1311 42.0164 6.15919 42.0008 6.18564 41.9822C6.21209 41.9635 6.23625 41.9426 6.25846 41.9195C6.28066 41.8963 6.30058 41.8708 6.31789 41.8437C6.3352 41.8166 6.34957 41.7879 6.36132 41.7578C6.37308 41.7278 6.38157 41.6971 6.38712 41.6654C6.39267 41.6334 6.39528 41.6014 6.3943 41.5694C6.39365 41.5371 6.38973 41.5054 6.38287 41.4737C6.12392 40.3073 5.79638 38.9919 5.47963 37.7193C5.13478 36.3328 4.77753 34.8992 4.49572 33.6087C4.418 33.254 4.40396 32.8514 4.45033 32.3423C4.58846 30.8369 4.75435 28.2042 4.81639 27.1906C5.02212 27.1925 5.20761 27.2546 5.3735 27.3764C5.69842 27.6294 5.86659 28.1722 5.85941 28.9451C5.86104 28.9974 5.87051 29.0483 5.8888 29.0973C5.96848 30.2393 6.03607 31.3074 6.07428 31.9102L6.08081 32.0095C6.10563 32.4749 6.17878 32.932 6.30058 33.3817C6.67873 34.7346 7.10423 35.9853 7.55488 37.3095C7.88502 38.2803 8.2266 39.2842 8.56752 40.3834C8.57732 40.4137 8.59006 40.4431 8.6054 40.4712C8.62108 40.4993 8.63904 40.5257 8.65961 40.5502C8.68018 40.5747 8.70304 40.5969 8.72819 40.6172C8.75301 40.6371 8.77978 40.6547 8.80819 40.6694C8.8366 40.6841 8.86632 40.6962 8.89702 40.7053C8.92771 40.7141 8.95906 40.72 8.99106 40.723C9.02307 40.7259 9.05474 40.7256 9.08674 40.7223C9.11875 40.719 9.14977 40.7125 9.18046 40.703C9.21116 40.6936 9.24055 40.6812 9.26863 40.6658C9.29672 40.6505 9.32317 40.6325 9.34799 40.6123C9.37248 40.5917 9.39501 40.5692 9.41526 40.5443C9.4355 40.5195 9.45314 40.4927 9.46816 40.4643C9.48318 40.4363 9.49559 40.4065 9.50473 40.3758C9.51388 40.3451 9.52008 40.3138 9.52335 40.2821C9.52629 40.2501 9.52629 40.2181 9.52335 40.1861C9.52008 40.1544 9.51388 40.1231 9.50441 40.0924C9.15957 38.9808 8.8157 37.9704 8.48327 36.9934C8.03753 35.6823 7.61594 34.4443 7.24498 33.1175C7.14211 32.7341 7.08039 32.3439 7.05982 31.9475L7.05362 31.8482C6.87042 28.9608 6.6402 25.5741 6.457 24.5255C6.58926 24.4844 6.72347 24.4779 6.85899 24.5066C6.98112 24.5288 7.09966 24.5644 7.21396 24.6131C7.32825 24.6617 7.43569 24.7225 7.53659 24.7953C7.6375 24.8678 7.72926 24.9507 7.81155 25.0438C7.89384 25.1369 7.96503 25.2378 8.02479 25.3468C8.49372 26.1965 9.1501 28.7665 9.56417 30.5515C9.66572 31.0906 9.76369 31.5442 9.85382 31.8492C9.95668 32.2685 11.9709 40.2867 16.0505 44.4143C16.3934 44.7608 16.8826 44.8859 17.2976 44.7304C17.6702 44.591 17.9089 44.2566 17.936 43.8354C17.9942 42.9409 17.9076 41.7947 17.7048 40.7693C17.3685 39.0709 17.0093 35.9834 17.2117 35.0119C17.4184 34.0201 17.7943 33.3455 18.2708 33.112C18.3289 33.0836 18.3903 33.0702 18.4546 33.0718C18.5189 33.0731 18.5797 33.0891 18.6362 33.1198C18.6992 33.1521 18.7514 33.1969 18.7926 33.2543C18.8341 33.3118 18.8599 33.3755 18.8703 33.4454C19.1231 35.0844 19.5518 37.5116 20.1644 39.7792C20.6105 41.251 21.7417 45.346 21.6199 46.6052C21.5454 47.3713 21.0716 49.4619 20.5694 51.6756C20.0374 54.0216 19.4346 56.6807 19.1815 58.3252C18.6943 61.4934 17.7489 77.7885 17.7088 78.4805C17.7071 78.5128 17.7081 78.5448 17.7127 78.5765C17.7172 78.6085 17.7248 78.6398 17.7352 78.6702C17.746 78.7006 17.7594 78.7296 17.7757 78.7574C17.792 78.7851 17.811 78.8113 17.8322 78.8351C17.8537 78.8593 17.8773 78.8808 17.9031 78.9004C17.9285 78.9197 17.956 78.9367 17.985 78.9507C18.0141 78.9648 18.0441 78.9759 18.0751 78.9837C18.1065 78.9919 18.1378 78.9968 18.1702 78.9987C18.18 78.999 18.1894 78.9997 18.1989 78.9997C18.2299 78.9994 18.2606 78.9964 18.291 78.9905C18.3214 78.9847 18.3511 78.9762 18.3798 78.9648C18.4086 78.9533 18.436 78.9393 18.4621 78.9223C18.4882 78.9056 18.5127 78.8867 18.5353 78.8655C18.5578 78.8443 18.578 78.8211 18.5963 78.7959C18.6143 78.7708 18.63 78.744 18.643 78.7159C18.6561 78.6878 18.6665 78.6588 18.674 78.6287C18.6816 78.5987 18.6865 78.5683 18.6881 78.5373C18.6979 78.3681 19.671 61.597 20.1511 58.4745C20.3989 56.8642 20.9978 54.2227 21.5262 51.8924C22.0572 49.5504 22.516 47.5277 22.5963 46.6999C22.7207 45.4139 21.8798 42.2052 21.404 40.5247C21.407 30.5208 23.0404 21.5755 23.0571 21.4863C23.0652 21.4426 23.0672 21.3985 23.0633 21.3544ZM12.8807 4.31249C12.4483 3.5144 12.0398 2.76038 11.9967 2.53441C11.9754 2.42305 11.9663 2.31072 11.9692 2.19773C11.9722 2.08441 11.9872 1.97273 12.0146 1.86301C12.0417 1.75296 12.0806 1.64716 12.1309 1.5456C12.1812 1.44437 12.2416 1.34934 12.3124 1.26117C12.3951 1.15047 12.4999 1.06752 12.6266 1.01266L12.976 1.48617C14.1927 3.13363 15.3425 4.6913 17.0716 7.62441C17.2627 8.71477 17.4671 9.78424 17.6356 10.6343C17.7715 11.319 17.793 12.0074 17.7003 12.6997C17.6719 12.9126 17.6389 13.17 17.601 13.4645C17.5383 13.955 17.4622 14.547 17.3724 15.2083C16.2353 10.5134 14.1121 6.58499 12.8807 4.31249ZM11.6365 9.62325C10.758 8.68048 9.84958 7.70539 9.70328 7.29524C9.66507 7.18878 9.63862 7.07939 9.62425 6.96705C9.60956 6.85472 9.60727 6.74206 9.61739 6.6294C9.62719 6.51641 9.64907 6.40603 9.68303 6.29794C9.71699 6.18985 9.76238 6.08666 9.81855 5.9887C9.88354 5.86526 9.9753 5.76664 10.0938 5.69317L10.3345 5.91228C11.5124 6.98306 13.4717 8.76506 14.5059 9.79926C15.5166 12.1456 16.4695 14.9298 16.9094 17.9383C16.4336 16.4688 15.6789 14.5402 14.6496 13.1268C13.748 11.8889 12.6263 10.6852 11.6365 9.62325ZM14.661 17.0301C13.7881 15.7203 11.3769 13.6722 10.0814 12.5717C9.77871 12.3147 9.46653 12.0495 9.38489 11.9689C9.29574 11.8373 9.23435 11.6939 9.20136 11.5382C9.16806 11.3827 9.16512 11.2266 9.19287 11.0702C9.2092 10.9719 9.24218 10.8795 9.29182 10.7933C9.5916 10.9987 10.1781 11.3726 11.0588 11.933C12.0385 12.556 13.1419 13.2578 13.9041 13.7724C15.5943 16.1449 16.5279 20.1827 16.5534 20.2934C16.492 20.6118 16.4283 20.9295 16.3624 21.2469C16.0466 19.8104 15.5571 18.3746 14.661 17.0301ZM20.4913 36.9039C20.1886 35.455 19.9682 34.1285 19.8398 33.2958C19.8225 33.1854 19.7928 33.0783 19.7504 32.9751C19.7079 32.8716 19.6544 32.7746 19.5891 32.6839C19.5241 32.5931 19.4493 32.5111 19.365 32.4376C19.2808 32.3645 19.1894 32.3018 19.0904 32.2502C18.9944 32.1989 18.8935 32.1597 18.7883 32.1326C18.6829 32.1055 18.5761 32.0912 18.467 32.0895C18.3583 32.0879 18.2508 32.099 18.145 32.1228C18.0389 32.1467 17.937 32.1826 17.8394 32.2306C17.0739 32.6058 16.525 33.4983 16.2513 34.812C15.9885 36.0745 16.4414 39.439 16.7425 40.96C16.9296 41.9064 17.0099 42.9579 16.957 43.7723C16.9557 43.7975 16.9511 43.8115 16.9538 43.8115C16.9338 43.82 16.8421 43.8197 16.748 43.7247C12.8395 39.7704 10.824 31.6882 10.8077 31.6222C10.794 31.5572 10.6852 31.0452 10.5184 30.3248C10.0785 27.9586 9.56808 23.8179 9.56188 23.767C9.55861 23.7402 9.55306 23.7141 9.54555 23.6883C8.81864 21.2162 8.16945 19.9851 7.64762 18.9963C7.42622 18.5943 7.22604 18.1819 7.04643 17.7593C7.01639 17.6842 7.00463 17.6062 7.01149 17.5255C7.01802 17.4445 7.04251 17.3698 7.08497 17.3005C7.1173 17.244 7.16073 17.1983 7.21559 17.1631C7.27012 17.1275 7.32956 17.1066 7.39421 17.1C7.57839 17.0827 9.22586 16.99 10.6291 18.7635C11.3651 19.6939 12.0336 21.2447 12.6233 22.6129C13.0547 23.6135 13.4622 24.5589 13.8554 25.1666C14.1287 25.5885 14.8103 26.2259 15.481 26.1404C15.7004 26.1126 16.0969 25.981 16.286 25.4131C16.4489 24.9246 16.6017 24.407 16.7464 23.8721C16.752 23.8551 16.7565 23.8375 16.7598 23.8199C17.7212 20.2379 18.2838 15.8542 18.5741 13.5896C18.6117 13.297 18.6443 13.0413 18.6727 12.8297C18.7799 12.0303 18.755 11.2348 18.598 10.4436C17.7891 6.36456 17.3642 3.43504 17.4609 2.60755C17.4756 2.47726 17.505 2.35023 17.5484 2.22647C17.5922 2.1027 17.6493 1.98547 17.7195 1.87477C17.7901 1.76407 17.8717 1.66283 17.9651 1.57074C18.0588 1.47866 18.1614 1.39832 18.273 1.32975C18.3919 1.25497 18.5209 1.20925 18.66 1.1926C18.9369 2.49718 20.634 7.89643 21.1317 9.37637C21.2666 9.76334 21.3596 10.1598 21.4106 10.5663C21.568 11.9281 21.6846 14.2793 21.7972 16.5534C21.8883 18.3922 21.9745 20.1308 22.0803 21.374C21.9491 22.1097 20.7872 28.8041 20.4913 36.9039Z" fill="#2D1E19"/>
</g>
</svg>
