<svg width="71" height="53" viewBox="0 0 71 53" fill="none" xmlns="http://www.w3.org/2000/svg">
<mask id="mask0_66_295" style="mask-type:luminance" maskUnits="userSpaceOnUse" x="0" y="0" width="71" height="53">
<path d="M0 0H70.6738V53H0V0Z" fill="white"/>
</mask>
<g mask="url(#mask0_66_295)">
<path d="M64.7298 29.4844C64.1428 28.8801 63.7376 28.3562 63.8121 28.2817C63.8179 28.2759 63.8275 28.274 63.8389 28.274C63.9689 28.2722 64.4584 28.6584 65.0166 29.1997C65.3053 28.9184 65.5749 28.6794 65.7871 28.5149C65.7985 28.5074 65.8081 28.4997 65.8195 28.492C65.8522 28.4652 65.8846 28.4423 65.9152 28.4213C65.9325 28.408 65.9476 28.3963 65.9649 28.387C65.9878 28.3716 66.0109 28.3562 66.0319 28.3429C66.051 28.3314 66.0681 28.3219 66.0853 28.3123C66.0986 28.3064 66.1141 28.2969 66.1255 28.2913C66.1523 28.2817 66.1733 28.274 66.1885 28.274C66.1906 28.274 66.1925 28.274 66.1925 28.274C66.1943 28.274 66.1943 28.274 66.1943 28.274C66.2039 28.274 66.2135 28.2759 66.2191 28.2817C66.2191 28.2817 66.2191 28.2817 66.2191 28.2836C66.2286 28.2932 66.2286 28.3104 66.2231 28.3333C66.2212 28.3429 66.2135 28.3543 66.2095 28.3657C66.2039 28.383 66.1962 28.4022 66.1829 28.425C66.1752 28.4404 66.1619 28.4614 66.1502 28.4787C66.1369 28.5016 66.1218 28.5266 66.1045 28.5532C66.0891 28.5763 66.0699 28.601 66.051 28.626C66.0319 28.6526 66.0109 28.6794 65.9878 28.71C65.9668 28.7387 65.9421 28.7693 65.9171 28.7999C65.8923 28.8304 65.8673 28.861 65.8405 28.8937C65.812 28.9261 65.7815 28.9604 65.7506 28.9969C65.7222 29.0293 65.6935 29.062 65.6629 29.0963C65.6302 29.1346 65.5959 29.1728 65.5595 29.213C65.5271 29.2473 65.4946 29.2818 65.4622 29.3183C65.4239 29.3584 65.3856 29.3986 65.3455 29.4387C65.3301 29.456 65.3168 29.4693 65.3014 29.4844C65.3168 29.5017 65.3301 29.5153 65.3455 29.5323C65.3856 29.5724 65.4239 29.6126 65.4622 29.6527C65.4946 29.6891 65.5271 29.7237 65.5595 29.758C65.5959 29.7981 65.6302 29.8364 65.6629 29.8747C65.6935 29.909 65.7222 29.9417 65.7506 29.9741C65.7815 30.0084 65.812 30.0448 65.8405 30.0773C65.8673 30.11 65.8923 30.1405 65.9171 30.1711C65.9421 30.2017 65.9668 30.2323 65.9878 30.261C66.0109 30.2915 66.0319 30.3184 66.051 30.345C66.0699 30.37 66.0891 30.3947 66.1045 30.4178C66.1218 30.4444 66.1369 30.4694 66.1502 30.4923C66.1619 30.5095 66.1752 30.5305 66.1829 30.546C66.1962 30.5688 66.2039 30.588 66.2095 30.6052C66.2135 30.6167 66.2212 30.6281 66.2231 30.6377C66.2286 30.6605 66.2286 30.6778 66.2191 30.6874C66.2191 30.6892 66.2191 30.6892 66.2191 30.6892C66.2135 30.6951 66.2039 30.697 66.1943 30.697C66.1943 30.697 66.1943 30.697 66.1925 30.697C66.1925 30.697 66.1906 30.697 66.1885 30.697C66.1733 30.697 66.1523 30.6892 66.1255 30.6797C66.1141 30.6741 66.0986 30.6645 66.0853 30.6587C66.0681 30.6491 66.051 30.6395 66.0298 30.6281C66.0109 30.6148 65.9878 30.5994 65.9649 30.5842C65.9476 30.5747 65.9325 30.563 65.9152 30.5497C65.8846 30.5287 65.8522 30.5058 65.8195 30.479C65.8081 30.4712 65.7985 30.4635 65.7871 30.4561C65.5749 30.2915 65.3053 30.0525 65.0166 29.7713C64.4584 30.3125 63.9689 30.697 63.8389 30.697C63.8275 30.697 63.8179 30.6951 63.8121 30.6892C63.7376 30.6148 64.1428 30.0908 64.7298 29.4844ZM4.17358 29.4844C3.58473 28.8801 3.18144 28.3562 3.25401 28.2817C3.26172 28.2759 3.26943 28.274 3.28086 28.274C3.41272 28.2722 3.90029 28.6584 4.45857 29.1997C4.74914 28.9184 5.01871 28.6794 5.23086 28.5149C5.24043 28.5074 5.25186 28.4997 5.26143 28.492C5.29599 28.4652 5.32842 28.4423 5.35714 28.4213C5.37442 28.408 5.39143 28.3963 5.40685 28.387C5.42971 28.3716 5.45258 28.3562 5.47384 28.3429C5.49485 28.3314 5.51186 28.3219 5.52914 28.3123C5.54243 28.3064 5.55599 28.2969 5.56928 28.2913C5.59427 28.2817 5.61527 28.274 5.63229 28.274C5.63229 28.274 5.63442 28.274 5.63628 28.274C5.64771 28.274 5.65542 28.2759 5.661 28.2817C5.67057 28.2913 5.6727 28.3104 5.66685 28.3333C5.66499 28.341 5.65728 28.3543 5.65356 28.3639C5.64585 28.383 5.64 28.4022 5.62671 28.425C5.61714 28.4404 5.6057 28.4596 5.59427 28.4787C5.57885 28.5016 5.56556 28.5244 5.54642 28.5532C5.531 28.5763 5.51186 28.601 5.49485 28.6239C5.47384 28.6526 5.4547 28.6794 5.42971 28.71C5.40871 28.7387 5.38399 28.7693 5.36086 28.798C5.33613 28.8304 5.30928 28.861 5.28243 28.8937C5.25399 28.9261 5.22528 28.9626 5.1947 28.9969C5.16599 29.0293 5.13728 29.062 5.10671 29.0963C5.07215 29.1346 5.03785 29.1728 5.00143 29.213C4.97086 29.2473 4.93843 29.2818 4.90413 29.3183C4.86585 29.3584 4.82757 29.3986 4.78928 29.4387C4.77387 29.456 4.76057 29.4693 4.74542 29.4844C4.76057 29.5017 4.77387 29.5153 4.78928 29.5323C4.82757 29.5724 4.86585 29.6126 4.90413 29.6527C4.93843 29.6891 4.97086 29.7237 5.00143 29.758C5.03785 29.7981 5.07215 29.8364 5.10671 29.8747C5.13728 29.909 5.16599 29.9417 5.1947 29.9741C5.22528 30.0084 5.25399 30.043 5.28243 30.0773C5.30928 30.11 5.33613 30.1405 5.36086 30.173C5.38399 30.2017 5.40871 30.2323 5.42971 30.261C5.4547 30.2915 5.47384 30.3184 5.49485 30.3471C5.51186 30.37 5.531 30.3968 5.54642 30.4178C5.56556 30.4465 5.57885 30.4694 5.59427 30.4923C5.6057 30.5114 5.61714 30.5305 5.62671 30.546C5.64 30.5688 5.64585 30.588 5.65356 30.6071C5.65728 30.6167 5.66499 30.63 5.66685 30.6377C5.6727 30.6605 5.67057 30.6797 5.661 30.6892C5.65542 30.6951 5.64771 30.697 5.63628 30.697C5.63442 30.697 5.63229 30.697 5.63229 30.697C5.61527 30.697 5.59427 30.6892 5.56928 30.6797C5.55599 30.6741 5.54243 30.6645 5.52914 30.6587C5.51186 30.6491 5.49485 30.6395 5.47384 30.6281C5.45258 30.6148 5.42971 30.5994 5.40685 30.5842C5.39143 30.5747 5.37442 30.563 5.35714 30.5497C5.32842 30.5287 5.29599 30.5058 5.26143 30.4808C5.25186 30.4712 5.24043 30.4635 5.229 30.454C5.01685 30.2897 4.74914 30.0525 4.45857 29.7713C3.90215 30.3125 3.41272 30.697 3.28086 30.697C3.26943 30.697 3.26172 30.6951 3.25401 30.6892C3.18144 30.6148 3.58473 30.0908 4.17358 29.4844ZM33.8093 2.14407C32.7693 1.07324 32.0544 0.145693 32.1844 0.0138323C32.1958 0.00426174 32.211 -0.00158691 32.2301 -0.00158691C32.4635 -0.00158691 33.3294 0.681111 34.3141 1.63923C35.2988 0.681111 36.1647 -0.00158691 36.3981 -0.00158691C36.4172 -0.00158691 36.4324 0.00426174 36.4438 0.0138323C36.5738 0.145693 35.8589 1.07324 34.819 2.14407C35.8589 3.21491 36.5738 4.14245 36.4438 4.27245C36.4324 4.28388 36.4172 4.28787 36.3981 4.28787C36.1647 4.28787 35.2988 3.60703 34.3141 2.64892C33.3294 3.60703 32.4635 4.28787 32.2301 4.28787C32.211 4.28787 32.1958 4.28388 32.1844 4.27245C32.0544 4.14245 32.7693 3.21491 33.8093 2.14407ZM47.4542 12.4475C46.4142 11.3767 45.6993 10.4492 45.8293 10.3192C45.8407 10.3077 45.8559 10.304 45.875 10.304C46.1085 10.304 46.9725 10.9846 47.959 11.9427C48.9437 10.9846 49.8077 10.304 50.0411 10.304C50.0621 10.304 50.0773 10.3077 50.0887 10.3192C50.2187 10.4492 49.5039 11.3767 48.4639 12.4475C49.5039 13.5186 50.2187 14.4481 50.0887 14.5781C50.0773 14.5876 50.0621 14.5932 50.0411 14.5932C49.8077 14.5932 48.9437 13.9124 47.959 12.9545C46.9725 13.9124 46.1085 14.5932 45.875 14.5932C45.8559 14.5932 45.8407 14.5876 45.8293 14.5781C45.6993 14.4481 46.4142 13.5186 47.4542 12.4475ZM21.5946 13.0138C20.5525 11.9427 19.8395 11.0154 19.9695 10.8833C19.9809 10.8737 19.9963 10.8681 20.0152 10.8681C20.2486 10.8681 21.1126 11.5508 22.0992 12.509C22.6117 12.0097 23.0876 11.5891 23.4625 11.2983C23.4816 11.2831 23.5026 11.2677 23.5217 11.2544C23.581 11.2084 23.6363 11.1664 23.69 11.1281C23.7206 11.1071 23.7493 11.088 23.7777 11.0689C23.8179 11.042 23.8602 11.0154 23.8963 10.9923C23.9309 10.9713 23.9614 10.9561 23.992 10.9389C24.0167 10.9274 24.0417 10.912 24.0627 10.9024C24.1087 10.8833 24.1467 10.8719 24.1755 10.87C24.1773 10.87 24.1813 10.8681 24.1813 10.8681C24.2023 10.8681 24.2175 10.8737 24.227 10.8833C24.2443 10.9006 24.2462 10.933 24.2366 10.9753C24.2329 10.9904 24.2196 11.0133 24.2137 11.0306C24.2004 11.063 24.189 11.0957 24.1659 11.1396C24.1507 11.1664 24.1276 11.1989 24.1087 11.2294C24.0837 11.2736 24.0569 11.3156 24.0245 11.3634C23.9976 11.4036 23.9652 11.4474 23.9327 11.4897C23.8963 11.5394 23.862 11.5891 23.8179 11.6426C23.7799 11.6923 23.7376 11.7457 23.6956 11.7975C23.6499 11.8528 23.6057 11.9084 23.556 11.9677C23.5082 12.0251 23.4547 12.0863 23.4013 12.1474C23.3516 12.2067 23.2998 12.266 23.2445 12.3271C23.1852 12.3941 23.1259 12.4592 23.0629 12.5278C23.0055 12.5911 22.9462 12.6541 22.8869 12.7174C22.8199 12.79 22.7532 12.8607 22.6825 12.9314C22.6556 12.9601 22.6327 12.987 22.6059 13.0138C22.6327 13.0422 22.6575 13.0691 22.6843 13.096C22.7532 13.1685 22.8199 13.2374 22.885 13.3081C22.9462 13.3732 23.0055 13.4362 23.0629 13.4995C23.1259 13.5684 23.1852 13.6351 23.2445 13.7002C23.2979 13.7614 23.3516 13.8207 23.4013 13.8799C23.4547 13.9411 23.5082 14.0025 23.556 14.0596C23.6057 14.1189 23.6517 14.1745 23.6956 14.2301C23.7376 14.2816 23.7799 14.3351 23.8179 14.3848C23.862 14.4385 23.8963 14.4882 23.9346 14.5379C23.9652 14.5818 23.9976 14.6238 24.0245 14.6621C24.0569 14.7118 24.0837 14.7538 24.1106 14.7979C24.1276 14.8285 24.1507 14.8609 24.1659 14.8878C24.189 14.9316 24.2004 14.9643 24.2137 14.9968C24.2196 15.014 24.2329 15.0369 24.2366 15.0523C24.2462 15.0943 24.2443 15.1268 24.227 15.144C24.2175 15.1536 24.2023 15.1592 24.1813 15.1592C24.1813 15.1592 24.1773 15.1573 24.1755 15.1573C24.1467 15.1555 24.1087 15.144 24.0627 15.1249C24.0417 15.1172 24.0167 15.102 23.992 15.0885C23.9614 15.0733 23.9309 15.056 23.8945 15.035C23.8602 15.0122 23.82 14.9853 23.7777 14.9585C23.7493 14.9393 23.7206 14.9202 23.69 14.8973C23.6363 14.8609 23.581 14.8189 23.5217 14.775C23.5026 14.7596 23.4816 14.7423 23.4606 14.7272C23.0857 14.4364 22.6117 14.0176 22.0992 13.5186C21.1126 14.4765 20.2486 15.1592 20.0152 15.1592C19.9963 15.1592 19.9809 15.1536 19.9695 15.144C19.8395 15.0122 20.5525 14.0846 21.5946 13.0138ZM21.4396 52.0193C19.6863 52.0193 17.9256 51.8359 16.2088 51.4743C10.1118 50.1818 4.73 46.7183 1.05545 41.7254C0.963731 41.5973 0.973302 41.4633 0.988455 41.3944C1.00387 41.3256 1.0496 41.1995 1.18917 41.119C2.09545 40.599 3.03814 40.1324 3.98828 39.7366C4.01115 39.7289 4.03215 39.7212 4.05501 39.7116C6.23656 38.7995 8.53269 38.201 10.8862 37.9331C12.0754 39.8972 13.4921 41.7063 15.1058 43.3221C18.8893 47.1027 23.6669 49.7303 28.8328 50.912C26.445 51.6484 23.9692 52.0193 21.4396 52.0193ZM11.41 36.8968C8.79269 37.1299 6.18499 37.7592 3.67671 38.8072C3.66714 38.8072 3.65544 38.8128 3.64587 38.8186C2.64788 39.2336 1.6653 39.7174 0.703732 40.2701C-0.0172483 40.6793 -0.221685 41.6355 0.26588 42.3028C4.21771 47.6745 9.8824 51.134 16.0062 52.4324C17.7879 52.8091 19.61 52.9984 21.4396 52.9984C25.032 52.9984 28.6531 52.2623 32.0695 50.74C32.2245 50.6712 32.3737 50.5928 32.5265 50.5202C26.2134 49.9178 20.3231 47.1524 15.7978 42.6298C14.0732 40.9031 12.605 38.9715 11.41 36.8968ZM26.3722 29.8824C26.248 36.9561 28.8406 44.0622 34.1402 49.4951C27.2976 49.2351 21.1262 46.3512 16.6006 41.8267C12.1767 37.3977 9.31854 31.4046 8.93997 24.7478C8.89398 23.9484 9.54212 23.2771 10.3335 23.2771V24.2563C10.1788 24.2563 10.0775 24.3403 10.0297 24.3902C9.98369 24.44 9.90925 24.5431 9.91696 24.6922C10.2705 30.8881 12.8899 36.7285 17.2929 41.1344C21.2389 45.0777 26.3073 47.577 31.7675 48.3094C27.6169 43.2399 25.3763 36.954 25.3877 30.3221C21.1969 26.7193 15.8781 24.57 10.3585 24.2581L10.3335 23.2771C10.3604 23.2771 10.3872 23.279 10.4141 23.2809C16.5281 23.6251 22.0819 26.0595 26.3722 29.8824ZM38.4954 48.2158C42.6918 43.1844 44.9919 36.9178 45.0397 30.2857C49.2362 26.7462 54.5396 24.6484 60.0229 24.3671L60.0495 24.3652C60.2388 24.3652 60.3651 24.4684 60.4204 24.5298C60.4778 24.591 60.5695 24.7191 60.5562 24.9025C60.1242 31.0545 57.4533 36.8335 53.0351 41.1727C49.0546 45.0796 43.9612 47.5331 38.4954 48.2158ZM61.5314 24.9714C61.5925 24.1127 60.8984 23.3861 60.0495 23.3861C60.0248 23.3861 59.9998 23.388 59.9732 23.388C53.8973 23.6998 48.3605 26.0768 44.0606 29.8364C44.1199 36.9138 41.4606 43.9952 36.1131 49.3784C42.9576 49.1814 49.154 46.3551 53.7213 41.8727C58.1625 37.5088 61.0685 31.5825 61.5314 24.9714ZM57.5413 50.1089C57.0231 50.2982 56.4821 50.4779 55.943 50.6387L55.7747 50.6885C55.6524 50.7228 55.5298 50.7592 55.3924 50.7956C55.2106 50.8453 55.0308 50.891 54.8533 50.9352L54.8091 50.9447L54.7211 50.9657C52.7347 51.4533 50.693 51.7 48.6532 51.7C46.3817 51.7 44.1545 51.3999 41.9939 50.8052C46.982 49.5735 51.603 46.9841 55.2698 43.3202C57.0824 41.5034 58.6368 39.463 59.9004 37.2448C61.1719 37.3538 62.4259 37.5545 63.6364 37.8432C63.6534 37.8491 63.6706 37.8528 63.6879 37.8568C64.1619 37.9714 64.6495 38.1035 65.1256 38.2508C65.3723 38.3271 65.6188 38.4095 65.8578 38.4879C67.0756 38.9066 68.2783 39.4229 69.4215 40.0216C69.6243 40.1284 69.7065 40.3409 69.691 40.5224C66.7298 44.9382 62.5294 48.252 57.5413 50.1089ZM69.8803 39.1552C68.6702 38.5241 67.4313 37.9924 66.1752 37.5622C65.9229 37.4779 65.6704 37.3939 65.4181 37.3155C64.9191 37.1626 64.4201 37.0268 63.9155 36.9042C63.9096 36.9005 63.9038 36.9005 63.9001 36.9005C62.3917 36.5371 60.8718 36.3172 59.348 36.2215C58.0918 38.5451 56.4954 40.7061 54.5778 42.6298C50.1634 47.0397 44.4565 49.7782 38.3234 50.4723C38.2755 50.476 38.2295 50.4819 38.1817 50.4875C41.5601 51.9677 45.1238 52.6791 48.6532 52.6791C50.7829 52.6791 52.8993 52.421 54.9546 51.9161C54.9984 51.9047 55.0425 51.897 55.0864 51.8856C55.2757 51.8377 55.465 51.7917 55.6543 51.7383C55.8377 51.6923 56.027 51.633 56.2107 51.5814C56.7745 51.4132 57.331 51.2295 57.8778 51.0287C62.9327 49.1471 67.4351 45.7144 70.6106 40.9106C70.8095 40.2491 70.5266 39.4976 69.8803 39.1552ZM35.1858 47.535C28.6149 40.4249 26.6571 30.1538 30.2227 21.0836C30.412 20.5998 30.6108 20.1351 30.8134 19.6991C31.8611 17.4407 33.2395 15.3506 34.9144 13.4785C34.9891 13.4344 35.0654 13.4248 35.121 13.4248C35.1898 13.4248 35.3235 13.4421 35.4307 13.5607C38.2984 16.7407 40.3212 20.621 41.2828 24.7725C41.3402 25.023 41.3899 25.2737 41.4415 25.5337C41.4779 25.7038 41.5085 25.8779 41.5391 26.0481L41.5524 26.1206C41.7052 27.0195 41.8086 27.9547 41.8602 28.9089C41.8908 29.3967 41.9062 29.871 41.9062 30.3567C41.9062 36.7782 39.5277 42.8401 35.1858 47.535ZM36.3042 47.7492C36.4342 47.602 36.5605 47.4528 36.6868 47.3016C36.8835 47.0703 37.0749 46.835 37.2621 46.5979C37.3674 46.4641 37.4724 46.3283 37.5758 46.1924C37.7842 45.9152 37.9868 45.636 38.1838 45.3529C38.2564 45.2479 38.3308 45.1445 38.4015 45.0395C38.6387 44.6875 38.8662 44.3318 39.0842 43.9723C39.1071 43.9341 39.1339 43.8976 39.1568 43.8594C39.1549 43.8615 39.1531 43.8633 39.1512 43.8652C41.6366 39.7193 42.885 35.038 42.885 30.3567C42.885 29.8518 42.8696 29.3526 42.8372 28.8477C42.7856 27.88 42.6803 26.9123 42.5161 25.9564C42.4796 25.7516 42.4432 25.5414 42.4012 25.3367C42.3496 25.0729 42.2962 24.8167 42.2388 24.5585C41.2618 20.3379 39.2334 16.3162 36.1591 12.9048C35.8818 12.5988 35.5014 12.4457 35.121 12.4457C34.8131 12.4457 34.5071 12.5451 34.2567 12.748C32.454 14.7445 31.0085 16.9531 29.9263 19.2862C29.7046 19.7584 29.5001 20.2422 29.3108 20.7261C25.6017 30.1671 27.5613 41.32 35.1858 48.9482C35.1877 48.9464 35.1898 48.9442 35.1917 48.9424C35.1898 48.9442 35.1877 48.9482 35.1858 48.9501H35.1877L35.4248 48.7071C35.5224 48.6058 35.6141 48.4987 35.7098 48.3955C35.9124 48.1812 36.1112 47.9672 36.3042 47.7492Z" fill="#2D1E19"/>
</g>
</svg>
