<svg width="73" height="73" viewBox="0 0 73 73" fill="none" xmlns="http://www.w3.org/2000/svg">
<mask id="mask0_66_333" style="mask-type:luminance" maskUnits="userSpaceOnUse" x="-1" y="0" width="74" height="73">
<path d="M-0.00146484 0H72.9477V73H-0.00146484V0Z" fill="white"/>
</mask>
<g mask="url(#mask0_66_333)">
<path d="M67.4728 17.2838C67.0403 16.588 66.5853 15.9079 66.1074 15.2427C65.6295 14.5776 65.1298 13.9292 64.6086 13.2974C64.0871 12.6654 63.5454 12.0518 62.9829 11.4562C62.4208 10.8607 61.8392 10.2845 61.2386 9.72788C60.6376 9.17121 60.0188 8.63535 59.3823 8.11995C58.7455 7.60455 58.0923 7.11099 57.4227 6.63925C56.7532 6.16752 56.0686 5.71898 55.369 5.29295C54.6694 4.86692 53.9562 4.46476 53.2296 4.08649L52.6409 3.80167L51.6347 3.30811C51.0647 3.04239 50.4572 2.79544 49.8494 2.54849C49.2415 2.30153 48.5201 2.03582 47.7605 1.78887L47.4944 1.71314H47.4375L47.2287 1.65618H47.1905L46.6591 1.50405C46.1082 1.33316 45.5386 1.18137 44.9308 1.02959L44.3799 0.915661C43.1949 0.645172 41.9987 0.442561 40.7909 0.307828L40.1831 0.231764L39.8034 0.193902L39.1956 0.15604C38.2838 0.0799759 37.3724 0.0421143 36.461 0.0421143C35.8934 0.0427964 35.3265 0.0571225 34.76 0.0844102C34.1934 0.111698 33.6279 0.151947 33.063 0.205499C32.4982 0.259392 31.935 0.325906 31.3736 0.405723C30.8118 0.485539 30.2524 0.578658 29.695 0.684398C29.1377 0.790479 28.5834 0.90918 28.0315 1.04084C27.48 1.17285 26.9315 1.31713 26.3864 1.47438C25.8413 1.63162 25.3004 1.80149 24.7631 1.98397C24.2259 2.16646 23.6935 2.36157 23.1654 2.56861C22.6374 2.776 22.1145 2.99532 21.5967 3.22693C21.079 3.45853 20.5666 3.70207 20.0601 3.95756C19.5539 4.21304 19.0535 4.48046 18.5596 4.75913C18.0654 5.03781 17.5783 5.32808 17.0977 5.62927C16.6171 5.9308 16.144 6.24324 15.678 6.56694C15.2121 6.8903 14.754 7.22457 14.3034 7.56942C13.8532 7.91427 13.4111 8.26935 12.9772 8.63466C12.5434 9.00032 12.118 9.37552 11.7019 9.76096C11.2854 10.1461 10.8781 10.5407 10.4804 10.9449C10.0824 11.3491 9.69385 11.7625 9.31523 12.1848C8.93661 12.6071 8.56789 13.0379 8.20906 13.4772C7.85057 13.9165 7.50231 14.3641 7.16428 14.8198C6.8266 15.2755 6.49948 15.7387 6.18329 16.2097C5.86709 16.6804 5.56215 17.1587 5.26813 17.6437C4.9741 18.1287 4.69168 18.6206 4.4205 19.1186C4.14933 19.6169 3.8901 20.1214 3.64246 20.6317C3.39517 21.142 3.15947 21.6577 2.93605 22.1792C2.7123 22.7004 2.50116 23.2267 2.30196 23.7578C2.1031 24.2889 1.91652 24.8244 1.74222 25.3644C1.56826 25.904 1.40692 26.4477 1.2582 26.9952C1.10949 27.5423 0.973388 28.0928 0.850252 28.6464C0.727116 29.2004 0.616942 29.7563 0.51973 30.3154C0.422518 30.8741 0.338267 31.4349 0.267319 31.9977C0.196371 32.5605 0.138385 33.1243 0.0933599 33.6899C0.0554982 34.2216 0.0176365 34.7722 0.0176365 35.3418C0.0176365 35.9114 -0.00146484 35.9875 -0.00146484 36.3102V36.4814C-0.00146484 36.9559 -0.00146484 37.3928 0.0176365 37.8294C0.0807394 39.6993 0.288808 41.5528 0.642524 43.3903C0.9959 45.2274 1.49015 47.026 2.12561 48.7858C2.2583 49.1845 2.39132 49.5075 2.50525 49.8114C3.07386 51.2618 3.73865 52.6671 4.4993 54.0267L4.9932 54.9193C5.76647 56.2305 6.61784 57.4892 7.54699 58.6949C8.47648 59.9011 9.47657 61.0451 10.5476 62.127C11.6183 63.209 12.7521 64.221 13.9483 65.1628C15.1449 66.1042 16.3947 66.9686 17.698 67.7555L18.3816 68.1542L18.5525 68.2494L19.2364 68.629L20.2617 69.1608L20.9265 69.4835C22.1367 70.0558 23.3749 70.5596 24.641 70.9945C25.9072 71.4294 27.1938 71.793 28.5002 72.0853C29.8069 72.3777 31.1256 72.5966 32.4562 72.7426C33.7872 72.8886 35.1219 72.9606 36.461 72.9585C38.4871 72.9568 40.5003 72.7921 42.4998 72.4646C43.5824 72.275 44.6651 72.0468 45.6904 71.7811C48.22 71.1163 50.6506 70.1923 52.983 69.0087L53.5336 68.7238C54.0837 68.4325 54.6264 68.1273 55.1609 67.808C55.6954 67.4887 56.2217 67.1562 56.7392 66.81C57.2566 66.4641 57.7652 66.1049 58.2642 65.7328C58.7636 65.3606 59.2527 64.9759 59.7323 64.5785C60.2119 64.1815 60.6809 63.7721 61.1393 63.3509C61.5977 62.9296 62.0453 62.4971 62.4815 62.053C62.9181 61.6089 63.3428 61.1539 63.7559 60.688C64.1689 60.222 64.5697 59.7458 64.9586 59.2594C65.3471 58.773 65.723 58.2771 66.0866 57.7712C66.4498 57.2657 66.7998 56.751 67.1368 56.2274C67.4738 55.7039 67.7972 55.1721 68.1065 54.6321C68.4163 54.0918 68.712 53.544 68.9937 52.9891C69.2755 52.4338 69.5426 51.8717 69.7956 51.3027C70.0484 50.7338 70.2865 50.1587 70.5099 49.5774C70.7333 48.9962 70.9417 48.4099 71.1351 47.8181C71.3285 47.2263 71.5066 46.63 71.6693 46.029C71.8323 45.428 71.9797 44.8232 72.1114 44.2147C72.2434 43.6062 72.3597 42.995 72.46 42.3807C72.5606 41.766 72.6455 41.1496 72.7144 40.5305C72.7833 39.9118 72.8365 39.2917 72.8737 38.6702C72.9109 38.0487 72.9324 37.4269 72.9378 36.8044C72.9429 36.1816 72.9324 35.5594 72.9061 34.9373C72.8795 34.3154 72.8372 33.6943 72.7789 33.0745C72.7206 32.4548 72.6465 31.8367 72.5565 31.2207C72.4664 30.6047 72.361 29.991 72.2396 29.3805C72.1182 28.7699 71.9814 28.1628 71.8289 27.559C71.6765 26.9553 71.5086 26.356 71.3255 25.7611C71.1423 25.1659 70.9441 24.5758 70.7306 23.9911C70.5174 23.4062 70.2892 22.827 70.0464 22.2539C69.8032 21.6806 69.5456 21.114 69.2738 20.5539C69.0016 19.9938 68.7154 19.4413 68.4152 18.8959C68.1147 18.3504 67.8006 17.8129 67.4728 17.2838ZM17.4511 66.4832C16.2016 65.6881 15.0057 64.8186 13.8641 63.8748C12.7221 62.9313 11.6429 61.921 10.6264 60.8438C9.60994 59.7663 8.66374 58.6305 7.7878 57.4359C6.91221 56.2414 6.11336 54.9975 5.39195 53.704L4.91714 52.8305C4.21721 51.4692 3.60324 50.0703 3.07488 48.634C3.68271 45.7476 4.82232 43.6778 6.49334 42.4816C7.18133 42.0102 7.90958 41.6115 8.67738 41.2854C10.6216 40.4173 12.4383 39.3347 14.1278 38.0382C15.7418 36.8041 17.7741 35.2661 19.5781 32.7594C21.3822 30.253 21.7809 28.7337 22.2748 27.177C22.7684 25.6008 23.2053 24.2524 24.6485 22.7335C25.6172 21.7082 26.3008 21.4043 27.5352 20.8537C28.6653 20.3745 29.767 19.8366 30.8398 19.2397C33.0047 18.0431 38.7586 14.8723 41.9302 10.3719C43.6015 8.03638 44.6269 5.22609 45.0068 2.01672L45.9564 2.26367L46.0513 2.43456L46.0891 2.52939C46.6124 3.5977 47.005 4.71138 47.2666 5.87144C47.5695 7.17102 47.7025 8.48765 47.6653 9.82134C47.3236 13.6757 46.2413 16.9039 44.456 19.4293C42.9746 21.5182 41.3414 22.6384 39.2716 24.0628C38.0966 24.8879 36.8495 25.5841 35.5302 26.1513C34.5048 26.607 33.6882 26.9679 32.7765 27.9745C31.2764 29.6264 31.2003 31.1265 31.0864 32.8733C31.0106 34.0316 30.9346 35.3609 30.3267 36.9371C29.1684 39.9183 27.2122 40.9627 25.1424 42.0638C23.0723 43.1652 20.8126 44.3805 19.1794 47.5895C17.831 50.2671 17.6598 54.0646 17.3371 61.6413C17.2399 63.2585 17.2781 64.8725 17.4511 66.4832ZM36.461 0.953523C37.1824 0.953523 37.8851 0.972624 38.6069 1.02959C37.0876 3.9347 35.0936 6.32715 32.7195 8.1121C30.3458 9.89706 28.0861 10.5806 25.6172 11.2833H25.5981C23.6041 11.8529 21.3631 12.4986 18.5337 13.9227C11.1271 17.6256 6.91119 23.0562 5.10713 25.3729C3.68408 27.1968 2.42407 29.1274 1.32779 31.1644C3.92967 13.8657 18.8564 0.953523 36.461 0.953523ZM18.9703 14.7584C21.7049 13.3909 23.9268 12.7643 25.8829 12.1947C28.4279 11.4733 30.6498 10.8467 33.2895 8.87173C35.9292 6.89678 38.0181 4.31434 39.6322 1.10531H39.9173L40.5061 1.16227C41.7023 1.2953 42.8989 1.50405 44.0763 1.75101C43.7154 4.84611 42.7467 7.56158 41.1514 9.80223C38.1129 14.0936 32.5108 17.1887 30.3837 18.3661C28.9596 19.1445 27.9718 19.6002 27.1743 19.942H27.1552C25.8451 20.5116 25.0664 20.8534 23.965 22.0118C22.3697 23.7019 21.8761 25.2208 21.3631 26.854C20.8504 28.4871 20.3756 30.0251 18.8185 32.171C17.2611 34.3165 15.2101 35.9875 13.539 37.2407C11.9072 38.5051 10.154 39.5683 8.27864 40.431C7.4583 40.7789 6.67992 41.2029 5.94247 41.7032C4.38537 42.8234 3.24577 44.6084 2.52435 46.982C2.00009 45.2813 1.60578 43.551 1.34177 41.7909C1.07742 40.0308 0.9461 38.2609 0.948146 36.4814V36.4432C0.948146 35.9305 0.948146 35.4179 0.966907 34.9243L1.02387 33.8986C2.33811 31.0641 3.95218 28.4121 5.86675 25.9426C7.61384 23.6828 11.735 18.3849 18.9703 14.7584ZM57.5786 21.1764C57.4725 22.4003 57.26 23.6057 56.9411 24.792C56.6222 25.9787 56.2016 27.1279 55.6797 28.2402C55.7937 27.1766 55.8315 26.4743 56.0594 22.3348C56.3254 17.6444 53.7996 13.7709 52.2613 11.872C51.2117 10.6004 49.9902 9.52424 48.5958 8.64387C48.558 7.74167 48.4441 6.84937 48.2541 5.96661L48.1971 5.66269L48.1401 5.41574L48.1023 5.30181C47.8717 4.37574 47.5616 3.47661 47.1718 2.60545L47.6275 2.75724H47.6653C48.8472 3.15393 50.0056 3.60964 51.1408 4.12469C52.1559 5.06543 53.0666 6.09861 53.8723 7.22423C54.6779 8.34951 55.3629 9.54437 55.9263 10.8085C56.2797 11.6206 56.5802 12.4515 56.8285 13.3015C57.0765 14.1512 57.2703 15.0135 57.4098 15.8877C57.5489 16.7623 57.6328 17.6416 57.6612 18.5268C57.6895 19.4116 57.6618 20.295 57.5786 21.1764ZM18.3055 61.6983C18.6285 54.2736 18.7994 50.5328 20.0529 48.0643C21.5531 45.1019 23.6041 44.0009 25.6172 42.9373H25.636C27.7631 41.7981 29.9471 40.6206 31.2385 37.2976C31.903 35.5887 31.979 34.1838 32.0551 32.9302C32.1499 31.3162 32.226 30.0442 33.4983 28.6389C34.277 27.8036 34.9227 27.4997 35.9101 27.0627C37.2878 26.4665 38.5918 25.7386 39.8222 24.879H39.8413C41.9871 23.398 43.6772 22.2209 45.2534 20.0181C46.83 17.8153 47.7605 15.328 48.311 12.3468C48.425 11.6629 48.5201 10.9606 48.5958 10.277V10.2201C48.617 10.0942 48.63 9.96767 48.6341 9.8401C49.7191 10.5929 50.681 11.4791 51.5204 12.4986C52.6791 13.9418 55.3567 17.7395 55.091 22.2778C54.8058 27.2336 54.8058 27.2336 54.635 28.8668C54.5763 29.3528 54.5637 29.8403 54.5971 30.3291C54.6302 30.6248 54.6871 30.9161 54.768 31.2023L54.8249 31.3922L54.8628 31.544C55.0197 32.0345 55.2227 32.5052 55.472 32.9555C55.7213 33.4061 56.012 33.828 56.3442 34.2216L56.382 34.2595L56.6102 34.5443C56.9779 35.0979 57.4019 35.6044 57.8825 36.0636C58.0504 36.2065 58.2021 36.3647 58.3382 36.5384C58.4075 36.6356 58.4518 36.7434 58.4713 36.861C58.4713 37.0128 58.2622 37.2219 57.9204 37.5446L57.8634 37.6016C57.3931 38.0453 56.8548 38.3806 56.2494 38.6081C55.7937 38.7978 55.3758 38.9878 55.1858 39.5004C54.9958 40.0131 55.4328 40.9627 55.8694 41.5323C56.3063 42.102 56.4772 42.3107 56.4011 42.5195C56.3251 42.7286 55.5085 42.9943 55.0528 43.1082H55.034C54.3883 43.2603 53.7805 43.393 53.7805 43.9818C53.7935 44.1046 53.8337 44.2175 53.9006 44.3211C53.9674 44.4248 54.0541 44.5081 54.1601 44.5705H54.1792L54.3123 44.6653C54.8249 45.045 55.1289 45.6719 55.1098 45.9185C55.091 46.1655 55.034 46.0515 54.6732 46.2224C54.4149 46.3353 54.1735 46.4769 53.9487 46.6467C53.7242 46.8169 53.5223 47.011 53.3436 47.2287C52.717 48.0265 52.6791 49.0897 52.6409 50.3429V50.3811C52.6221 50.8555 52.603 51.3494 52.5652 51.8809C52.4322 53.2862 52.4131 53.3622 51.4825 54.1215C50.552 54.8811 49.1276 54.6345 42.614 53.4192C40.7339 53.0774 38.9486 53.2292 36.4798 53.9888C35.5302 54.2736 34.8845 54.9951 34.3718 55.5647L34.22 55.7168C32.1878 57.9193 33.7073 62.7806 35.4353 65.5339C37.7142 69.1417 41.4366 70.6418 43.0316 71.2875L42.538 71.4963C40.533 71.8394 38.5137 72.0103 36.4798 72.0089C35.1379 72.0141 33.8001 71.9417 32.4664 71.7923C31.1328 71.6426 29.812 71.4168 28.5046 71.1149C27.1972 70.8127 25.9113 70.4365 24.6472 69.9859C23.3831 69.535 22.1493 69.0131 20.9452 68.4203L20.2995 68.1163L19.2933 67.5655L18.6285 67.1858L18.5337 67.1289L18.4767 66.6541C18.2298 64.9452 18.2298 63.5402 18.3055 61.6983ZM36.2328 65.0212C34.4288 62.1349 33.4034 58.0144 34.9036 56.3813L35.0745 56.2104C35.5302 55.6977 36.0619 55.1281 36.7458 54.9193C39.0626 54.2167 40.6957 54.0458 42.4241 54.3685C49.5076 55.7168 50.856 55.8686 52.0904 54.8811C53.3248 53.8937 53.3436 53.6089 53.5148 51.976C53.5527 51.4252 53.5905 50.9125 53.6096 50.3811C53.6475 49.2606 53.6857 48.387 54.1032 47.8174C54.3784 47.5029 54.7076 47.2624 55.091 47.096C55.5085 46.8869 56.0403 46.6403 56.0785 45.9946C56.1163 45.3489 55.7367 44.6275 55.1289 44.0766H55.2619C56.0403 43.8869 56.9899 43.6591 57.2938 42.8995C57.5977 42.1398 57.085 41.5323 56.6481 40.9436C56.2112 40.3549 56.0024 40.1079 56.0785 39.8613C56.1542 39.6144 56.2494 39.6904 56.6481 39.5195C57.3531 39.2436 57.9797 38.8449 58.5282 38.323L58.6043 38.266C59.0409 37.8294 59.4396 37.4685 59.4396 36.8989V36.8232C59.4018 36.1962 59.003 35.8166 58.5661 35.38C58.1315 34.9724 57.7454 34.5228 57.4077 34.0316L57.1038 33.6329C56.5117 32.9347 56.0747 32.1498 55.7937 31.2783L55.7555 31.1453C55.6876 30.9215 55.6371 30.6933 55.6037 30.4617C56.0126 29.7632 56.3817 29.0441 56.7112 28.3046C57.0407 27.5648 57.3286 26.8096 57.5745 26.0381C57.8204 25.2668 58.0231 24.4844 58.1827 23.6906C58.342 22.8969 58.4573 22.0967 58.5282 21.2903C58.6118 20.367 58.6381 19.4419 58.607 18.5152C58.5756 17.5888 58.4873 16.6675 58.3416 15.752C58.196 14.8361 57.9941 13.9329 57.7362 13.0423C57.4783 12.1517 57.1662 11.2805 56.8002 10.4288C55.9847 8.60976 54.9338 6.93873 53.6475 5.41574C53.9927 5.60675 54.3344 5.80323 54.6732 6.0055C55.0115 6.20742 55.3465 6.41515 55.678 6.62868C56.0099 6.84186 56.3377 7.06085 56.6621 7.28529C56.9865 7.50939 57.3068 7.73895 57.6236 7.97396C57.9402 8.20898 58.253 8.44911 58.5617 8.69436C58.8703 8.9396 59.1749 9.19031 59.4751 9.44579C59.7756 9.70127 60.0713 9.96153 60.3633 10.2269C60.655 10.4923 60.9422 10.7624 61.2246 11.0373C61.5074 11.3123 61.7854 11.5916 62.0589 11.8758C62.3321 12.1599 62.6006 12.4488 62.8646 12.7418C63.1282 13.0348 63.3871 13.3322 63.6409 13.6341C63.8947 13.9356 64.1433 14.2416 64.3872 14.5517C64.6308 14.8614 64.8692 15.1755 65.1025 15.4934C65.3358 15.8113 65.5637 16.133 65.7861 16.4587C66.0085 16.7841 66.2257 17.1133 66.4372 17.4459C66.6487 17.7788 66.8547 18.1151 67.0549 18.4545C67.2552 18.7942 67.4499 19.137 67.6389 19.4829C67.8279 19.8291 68.011 20.1784 68.1884 20.5304C68.3654 20.8827 68.537 21.2375 68.7024 21.5956C68.8679 21.9534 69.0275 22.314 69.181 22.6772C69.3345 23.0402 69.4818 23.4058 69.6231 23.7739C69.7643 24.1423 69.8997 24.5123 70.0286 24.8852C70.1576 25.2576 70.2803 25.6322 70.3967 26.0091C70.5133 26.3856 70.6235 26.7643 70.7272 27.1446C70.8312 27.5249 70.9288 27.9069 71.0198 28.2903C71.1113 28.6741 71.1958 29.0592 71.2743 29.4456C71.3528 29.8321 71.4244 30.2196 71.4899 30.6084C71.5554 30.9973 71.6144 31.3868 71.6669 31.7777C71.7194 32.1686 71.7651 32.5602 71.8047 32.9524C71.8443 33.3447 71.877 33.7376 71.9033 34.1309C71.9299 34.5242 71.9497 34.9182 71.963 35.3121C71.9759 35.7061 71.9828 36.1004 71.9828 36.4947C71.9831 36.889 71.9766 37.283 71.9637 37.6773C71.9507 38.0712 71.9309 38.4649 71.905 38.8585C71.8787 39.2518 71.846 39.6447 71.8068 40.037C71.7679 40.4292 71.7222 40.8208 71.6696 41.2117C71.6174 41.6026 71.5588 41.9925 71.4936 42.3813C71.4285 42.7702 71.3568 43.1577 71.2784 43.5441C71.2003 43.9306 71.116 44.3157 71.025 44.6994C70.9339 45.0832 70.8367 45.4652 70.733 45.8455C70.6293 46.2258 70.5195 46.6044 70.4031 46.9814C70.2868 47.3579 70.1644 47.7328 70.0354 48.1053C69.9068 48.4781 69.7721 48.8485 69.6309 49.2166C69.4897 49.5849 69.3427 49.9506 69.1895 50.3139C69.036 50.6771 68.8767 51.0377 68.7116 51.3958C68.5462 51.7536 68.375 52.1087 68.198 52.4611C68.0209 52.8134 67.8381 53.1627 67.6491 53.5089C67.4605 53.8551 67.2661 54.1979 67.0659 54.5377C66.866 54.8774 66.66 55.2137 66.4488 55.5466C66.2373 55.8795 66.0207 56.2087 65.7983 56.5344C65.576 56.8602 65.3484 57.1818 65.1155 57.5001C64.8822 57.818 64.6441 58.1321 64.4005 58.4422C64.157 58.7526 63.9083 59.0585 63.6549 59.3604C63.4011 59.6623 63.1426 59.9597 62.8789 60.2531C62.6152 60.5464 62.3471 60.835 62.0739 61.1194C61.8007 61.4039 61.5227 61.6836 61.2403 61.9585C60.9579 62.2335 60.6707 62.504 60.3794 62.7693C60.0877 63.035 59.792 63.2956 59.4918 63.5511C59.1917 63.8069 58.8871 64.0576 58.5787 64.3029C58.27 64.5485 57.9576 64.789 57.641 65.024C57.3245 65.2593 57.0042 65.4889 56.6798 65.7133C56.3558 65.9378 56.028 66.1571 55.6964 66.3706C55.3649 66.5841 55.0299 66.7922 54.6916 66.9945C54.3532 67.1968 54.0114 67.3936 53.6666 67.5846L53.3248 67.7746L53.1157 67.8885L52.7739 68.0594C50.4838 69.2536 48.091 70.1841 45.5956 70.8506L45.3295 70.9075L44.9308 71.0027L44.4751 70.8318H44.3802L43.4876 70.4331L43.3737 70.3949C41.8732 69.7874 38.3599 68.3633 36.2328 65.0212Z" fill="#2D1E19"/>
</g>
</svg>
